 http://www.imdb.com/title/tt0985058

IMDB Rating 6.1


Another re upload of a old dead torrent. All credits to original up loader only.

Please reseed after download. 

My upload speed is only 512 kbps (adsl) so please keep patience.
I will seed the torrent 24x7 for some weeks. 

Subtitles are in English but not exactly fits.



Metropia.2009.1080p.BluRay.x264-iMSORNY.mkv
Format                                   : Matroska
Format version                           : Version 2
File size                                : 4.37 GiB
Duration                                 : 1h 25mn
Overall bit rate                         : 7 307 Kbps
Encoded date                             : UTC 2010-05-25 23:29:01
Writing application                      : mkvmerge v2.9.7 ('Tenderness') built on Jul  1 2009 18:43:35
Writing library                          : libebml v0.7.7 + libmatroska v0.8.1

Video
ID                                       : 1
Format                                   : AVC
Format/Info                              : Advanced Video Codec
Format profile                           : High@L4.1
Format settings, CABAC                   : Yes
Format settings, ReFrames                : 4 frames
Codec ID                                 : V_MPEG4/ISO/AVC
Duration                                 : 1h 25mn
Bit rate                                 : 5 794 Kbps
Width                                    : 1 920 pixels
Height                                   : 1 040 pixels
Display aspect ratio                     : 16:9
Frame rate                               : 24.000 fps
Color space                              : YUV
Chroma subsampling                       : 4:2:0
Bit depth                                : 8 bits
Scan type                                : Progressive
Bits/(Pixel*Frame)                       : 0.121
Stream size                              : 3.38 GiB (77%)
Writing library                          : x264 core 96 r1602 69588a7


Audio
ID                                       : 2
Format                                   : DTS
Format/Info                              : Digital Theater Systems
Codec ID                                 : A_DTS
Duration                                 : 1h 25mn
Bit rate mode                            : Constant
Bit rate                                 : 1 510 Kbps
Channel(s)                               : 6 channels
Channel positions                        : Front: L C R, Side: L R, LFE
Sampling rate                            : 48.0 KHz
Bit depth                                : 24 bits
Compression mode                         : Lossy
Stream size                              : 926 MiB (21%)
Title                                    : English
Language                                 : English
Default                                  : Yes
Forced                                   : No